<?xml version="1.0" encoding="utf-8"?>
<!-- Generator: Adobe Illustrator 22.0.1, SVG Export Plug-In . SVG Version: 6.00 Build 0)  -->
<svg version="1.1" id="Lager_1" xmlns="http://www.w3.org/2000/svg" xmlns:xlink="http://www.w3.org/1999/xlink" x="0px" y="0px"
	 viewBox="0 0 196 68" style="enable-background:new 0 0 196 68;" xml:space="preserve">
<style type="text/css">
	.st0{fill:none;stroke:#FFFFFF;stroke-width:7;}
</style>
<path class="st0" d="M34,4C17.4,4.6,4.5,18.4,5,35s14.4,29.5,31,29c16.6-0.6,29.5-14.4,29-31C64.5,17.2,51.8,4.5,36,4H34z M76,4
	C59.4,4.6,46.5,18.4,47,35s14.4,29.5,31,29c16.6-0.6,29.5-14.4,29-31C106.5,17.2,93.8,4.5,78,4H76z M118,4
	c-16.6,0.6-29.5,14.4-29,31s14.4,29.5,31,29c16.6-0.6,29.5-14.4,29-31c-0.5-15.8-13.2-28.5-29-29H118z M160,4
	c-16.6,0.6-29.5,14.4-29,31c0.6,16.6,14.4,29.5,31,29c16.6-0.6,29.5-14.4,29-31c-0.5-15.8-13.2-28.5-29-29H160z"/>
</svg>
