<?xml version="1.0" encoding="iso-8859-1"?>
<!-- Generator: Adobe Illustrator 19.0.0, SVG Export Plug-In . SVG Version: 6.00 Build 0)  -->
<svg version="1.1" id="Layer_1" xmlns="http://www.w3.org/2000/svg" xmlns:xlink="http://www.w3.org/1999/xlink" x="0px" y="0px"
	 viewBox="0 0 512 512" style="enable-background:new 0 0 512 512;" xml:space="preserve">
<g>
	<g>
		<path d="M171.343,0v81.109H0V512h340.657v-81.109H512V0H171.343z M186.55,20.18l116.146,60.929H186.55V20.18z M325.45,430.891
			v65.901H15.208V96.317h156.135H325.45V430.891z M496.792,415.683H340.657V81.109h-5.223L209.81,15.208h286.982V415.683z"/>
	</g>
</g>
<g>
	<g>
		<path d="M33.457,136.871v187.564h274.756V136.871H33.457z M52.67,309.228l58.554-109.403c2.145-4.009,5.9-4.517,7.414-4.549
			c1.534-0.024,5.285,0.314,7.601,4.228l64.907,109.724H52.67z M208.815,309.228l-16.048-27.131l17.167-30.394
			c2.126-3.262,5.557-5.334,9.442-5.695c3.933-0.368,7.747,1.083,10.445,3.978l55.201,59.241H208.815z M293.006,295.49
			l-52.061-55.869c-5.936-6.37-14.314-9.561-22.98-8.754c-8.67,0.806-16.314,5.488-20.973,12.843l-13.16,23.286l-44.505-75.235
			c-4.439-7.506-12.286-11.868-21.015-11.69c-8.719,0.187-16.382,4.888-20.497,12.578l-49.149,91.833V152.079h244.341V295.49z"/>
	</g>
</g>
<g>
	<g>
		<path d="M247.889,165.259c-15.373,0-27.881,12.507-27.881,27.881c0,15.374,12.508,27.881,27.881,27.881
			s27.881-12.507,27.881-27.881C275.77,177.766,263.262,165.259,247.889,165.259z M247.889,205.814
			c-6.989,0-12.673-5.685-12.673-12.673c0-6.989,5.685-12.673,12.673-12.673c6.989,0,12.673,5.685,12.673,12.673
			C260.562,200.129,254.878,205.814,247.889,205.814z"/>
	</g>
</g>
<g>
	<g>
		<rect x="32.951" y="347.754" width="121.663" height="15.208"/>
	</g>
</g>
<g>
	<g>
		<rect x="32.951" y="380.198" width="121.663" height="15.208"/>
	</g>
</g>
<g>
	<g>
		<rect x="32.951" y="412.642" width="121.663" height="15.208"/>
	</g>
</g>
<g>
	<g>
		<rect x="32.951" y="445.085" width="121.663" height="15.208"/>
	</g>
</g>
<g>
	<g>
		<rect x="185.03" y="347.754" width="121.663" height="15.208"/>
	</g>
</g>
<g>
	<g>
		<rect x="185.03" y="380.198" width="121.663" height="15.208"/>
	</g>
</g>
<g>
	<g>
		<rect x="185.03" y="412.642" width="121.663" height="15.208"/>
	</g>
</g>
<g>
	<g>
		<rect x="185.03" y="445.085" width="81.109" height="15.208"/>
	</g>
</g>
<g>
	<g>
		<polygon points="310.749,39.541 310.749,54.749 461.307,54.749 461.307,138.899 353.331,138.899 353.331,154.107 476.515,154.107 
			476.515,39.541 		"/>
	</g>
</g>
<g>
	<g>
		<path d="M366.004,171.343v108.483h110.511V171.343H366.004z M461.307,264.618h-80.095V186.55h80.095V264.618z"/>
	</g>
</g>
<g>
	<g>
		<rect x="365.497" y="295.034" width="111.525" height="15.208"/>
	</g>
</g>
<g>
	<g>
		<rect x="365.497" y="324.101" width="111.525" height="15.208"/>
	</g>
</g>
<g>
	<g>
		<rect x="365.497" y="353.158" width="111.525" height="15.208"/>
	</g>
</g>
<g>
	<g>
		<rect x="365.497" y="382.226" width="68.943" height="15.208"/>
	</g>
</g>
<g>
</g>
<g>
</g>
<g>
</g>
<g>
</g>
<g>
</g>
<g>
</g>
<g>
</g>
<g>
</g>
<g>
</g>
<g>
</g>
<g>
</g>
<g>
</g>
<g>
</g>
<g>
</g>
<g>
</g>
</svg>
