<?xml version="1.0" encoding="iso-8859-1"?>
<!-- Generator: Adobe Illustrator 18.1.1, SVG Export Plug-In . SVG Version: 6.00 Build 0)  -->
<svg version="1.1" id="Capa_1" xmlns="http://www.w3.org/2000/svg" xmlns:xlink="http://www.w3.org/1999/xlink" x="0px" y="0px"
	 viewBox="0 0 162.567 162.567" style="enable-background:new 0 0 162.567 162.567;" xml:space="preserve">
<g id="_x33__2_">
	<g>
		<path style="fill-rule:evenodd;clip-rule:evenodd;" d="M161.908,50.946c-0.697-1.614-2.381-2.503-4.743-2.503
			c-0.697,0-1.228,0.078-1.383,0.104c-0.482,0.052-6.538,0.703-9.903,0.703c-1.112,0-1.994,0.337-2.624,1
			c-1.261,1.328-1.13,3.552-1.003,5.703c0.037,0.64,0.073,1.245,0.073,1.814c0,1.44-0.741,2.2-1.342,2.58
			c-1.767-3.489-8.347-16.424-11.433-21.633c-3.323-5.609-33.91-6.215-46.907-6.215c-0.863,0-1.352,0.004-1.352,0.004
			c-0.018,0-0.506-0.004-1.368-0.004c-4.053,0-14.568,0.08-24.66,0.823c-17.857,1.314-21.249,3.706-22.248,5.392
			c-3.086,5.209-9.665,18.142-11.432,21.633c-0.603-0.381-1.342-1.141-1.342-2.579c0-0.569,0.036-1.173,0.073-1.813
			c0.127-2.152,0.258-4.377-1.002-5.704c-0.63-0.663-1.513-1-2.624-1c-3.366,0-9.422-0.651-9.903-0.703
			C6.63,48.521,6.1,48.443,5.402,48.443c-2.362,0-4.046,0.888-4.743,2.503c-0.847,1.962-0.878,3.735-0.091,5.269
			c1.039,2.026,3.487,3.486,7.277,4.342l1.963,0.438c5.575,1.239,7.331,1.729,7.616,2.789c-2.408,0.824-9.475,3.853-11.085,11.382
			c-1.797,8.409-1.817,36.977-1.817,38.19c0,0.22,0.047,4.679,2.882,6.225c-0.002,0.063-0.01,0.126-0.01,0.189v5.345
			c0,2.725,2.233,4.947,4.98,4.953h24.77c2.751,0,4.989-2.222,4.989-4.953v-5.345c0-0.392-0.061-0.773-0.151-1.147
			c6.583,0.564,21.492,1.677,36.556,1.677c0.919,0,1.837-0.004,2.737-0.013c0.918,0.009,1.838,0.013,2.756,0.013
			c15.983,0,31.786-1.253,37.66-1.773c-0.107,0.406-0.179,0.821-0.179,1.243v5.345c0,2.725,2.233,4.947,4.98,4.953h24.77
			c2.751,0,4.989-2.222,4.989-4.953v-5.345c0-0.312-0.038-0.623-0.099-0.931c1.861-1.904,1.893-5.292,1.893-5.483
			c0-1.212-0.02-29.781-1.817-38.19c-1.609-7.529-8.678-10.558-11.085-11.382c0.284-1.06,2.04-1.549,7.615-2.789l1.963-0.438
			c3.789-0.856,6.237-2.316,7.277-4.341C162.786,54.682,162.755,52.909,161.908,50.946z M40.05,125.115
			c0,1.591-1.304,2.886-2.906,2.886H12.376c-1.599-0.004-2.9-1.298-2.9-2.886v-4.994c0.015,0.001,0.034,0.002,0.05,0.003
			c0.003,0,0.006,0,0.009,0c0.173,0.011,0.369,0.022,0.582,0.032c0.032,0.001,0.068,0.003,0.1,0.004
			c0.191,0.008,0.396,0.016,0.618,0.023c0.051,0.002,0.105,0.003,0.157,0.005c0.214,0.006,0.44,0.012,0.68,0.018
			c0.069,0.002,0.138,0.003,0.209,0.005c0.239,0.005,0.49,0.009,0.753,0.013c0.087,0.001,0.172,0.003,0.261,0.004
			c0.261,0.004,0.536,0.007,0.82,0.009c0.102,0.001,0.201,0.002,0.306,0.003c0.298,0.002,0.611,0.004,0.932,0.006
			c0.104,0,0.201,0.001,0.307,0.002c0.427,0.002,0.87,0.002,1.335,0.002h0.012c0.9,0,1.835-0.003,2.777-0.008
			c0.044,0,0.086,0,0.13-0.001c0.941-0.005,1.886-0.012,2.815-0.021h9.959c0.283,0.038,0.627,0.068,1.023,0.068
			c1.362,0,3.406-0.346,5.574-1.944c0.203,0.02,0.479,0.046,0.823,0.078c0.223,0.415,0.34,0.874,0.34,1.348V125.115z
			 M154.168,125.115c0,1.591-1.304,2.886-2.907,2.886h-24.768c-1.599-0.004-2.9-1.298-2.9-2.886v-5.345
			c0-0.449,0.102-0.88,0.298-1.272c0.113,0.08,0.225,0.143,0.337,0.216c0.115,0.075,0.23,0.153,0.343,0.221
			c0.154,0.092,0.305,0.172,0.457,0.253c0.104,0.055,0.209,0.115,0.312,0.165c0.16,0.078,0.315,0.144,0.471,0.21
			c0.092,0.039,0.185,0.082,0.275,0.117c0.165,0.064,0.324,0.116,0.484,0.168c0.077,0.025,0.156,0.055,0.232,0.077
			c0.169,0.05,0.332,0.089,0.495,0.128c0.062,0.015,0.126,0.033,0.187,0.046c0.171,0.036,0.334,0.063,0.495,0.087
			c0.048,0.007,0.098,0.018,0.145,0.025c0.168,0.023,0.327,0.037,0.483,0.049c0.036,0.003,0.075,0.008,0.109,0.011
			c0.112,0.007,0.214,0.008,0.319,0.011c0.072,0.002,0.149,0.007,0.217,0.007c0.409,0,0.762-0.031,1.051-0.072
			c0.031,0.003,0.062,0.004,0.095,0.004h9.836c0.928,0.009,1.872,0.016,2.811,0.021c0.046,0,0.09,0.001,0.135,0.001
			c0.942,0.005,1.876,0.008,2.776,0.008h0.012c3.917,0,6.456-0.055,7.549-0.164c0.222-0.022,0.439-0.06,0.649-0.113V125.115z
			 M160.143,55.277c-0.735,1.433-2.769,2.561-5.882,3.264l-1.957,0.438c-6.658,1.479-9.698,2.155-9.252,5.688l0.087,0.693
			l0.68,0.178c0.087,0.023,8.73,2.371,10.372,10.058c1.751,8.197,1.772,37.465,1.772,37.758c0,0.038-0.039,3.253-1.692,4.333
			c-0.087,0.057-0.179,0.105-0.272,0.147c-0.06,0.028-0.118,0.059-0.182,0.081c-0.159,0.055-0.325,0.097-0.505,0.115
			c-0.113,0.011-0.251,0.022-0.399,0.032c-0.039,0.003-0.076,0.005-0.118,0.008c-0.107,0.007-0.229,0.013-0.352,0.019
			c-0.143,0.007-0.3,0.014-0.477,0.02c-0.016,0.001-0.032,0.001-0.048,0.002c-0.443,0.016-0.993,0.031-1.676,0.043
			c-0.024,0-0.048,0.001-0.072,0.001c-0.278,0.005-0.582,0.009-0.905,0.013c-0.121,0.001-0.243,0.003-0.369,0.004
			c-0.159,0.002-0.32,0.003-0.49,0.004c-0.297,0.002-0.604,0.004-0.925,0.005c-0.109,0-0.223,0.001-0.336,0.001
			c-0.38,0.001-0.769,0.002-1.18,0.002c-0.912,0-1.856-0.003-2.808-0.008c-0.023,0-0.045,0-0.068,0
			c-0.946-0.005-1.9-0.012-2.837-0.021h-0.011c-4.938-0.045-9.355-0.127-9.416-0.129h-0.178l-0.162,0.051
			c-0.002,0.001-0.117,0.034-0.316,0.068c-0.062,0.011-0.141,0.021-0.221,0.032c-0.053,0.006-0.109,0.013-0.169,0.018
			c-0.096,0.009-0.203,0.015-0.317,0.019c-0.068,0.002-0.143,0.001-0.216,0.001c-0.099,0-0.203-0.004-0.312-0.01
			c-0.069-0.004-0.135-0.006-0.208-0.012c-0.168-0.015-0.347-0.039-0.533-0.071c-0.067-0.011-0.136-0.025-0.206-0.039
			c-0.207-0.042-0.42-0.091-0.645-0.16c-0.036-0.011-0.073-0.026-0.109-0.037c-0.213-0.068-0.433-0.152-0.658-0.249
			c-0.054-0.023-0.107-0.044-0.162-0.069c-0.251-0.115-0.508-0.25-0.77-0.406c-0.054-0.032-0.109-0.068-0.163-0.102
			c-0.277-0.173-0.557-0.363-0.841-0.588l-0.333-0.264l-0.423,0.043h0h0l-0.216,0.021c-2.163,0.21-20.776,1.964-39.635,1.964
			c-0.912,0-1.825-0.004-2.756-0.013c-20.231,0.194-41.024-1.819-42.507-1.965c-0.003,0-0.005,0-0.007-0.001
			c-0.042-0.004-0.07-0.007-0.076-0.008l-0.423-0.043l-0.333,0.264c-0.209,0.166-0.416,0.314-0.621,0.451
			c-0.094,0.063-0.186,0.117-0.279,0.174c-0.103,0.063-0.206,0.127-0.307,0.184c-0.126,0.07-0.25,0.134-0.374,0.195
			c-0.056,0.028-0.112,0.055-0.167,0.08c-0.153,0.07-0.305,0.137-0.453,0.194c-0.005,0.002-0.009,0.003-0.013,0.005
			c-1.005,0.384-1.886,0.471-2.529,0.46c-0.215-0.005-0.427-0.016-0.627-0.044c-0.298-0.039-0.467-0.089-0.467-0.089l-0.17-0.057
			l-0.179,0.003c-0.061,0.001-4.478,0.083-9.416,0.129h-0.021c-0.934,0.009-1.887,0.016-2.833,0.021c-0.02,0-0.041,0-0.061,0
			c-0.952,0.005-1.897,0.008-2.809,0.008c-0.157,0-0.298-0.001-0.451-0.001c-3.585-0.004-5.913-0.055-6.893-0.152
			c-0.005,0-0.009-0.002-0.013-0.003c-2.592-0.273-2.639-4.629-2.639-4.671c0-0.295,0.02-29.563,1.773-37.76
			c1.636-7.659,10.285-10.036,10.372-10.058l0.681-0.178l0.087-0.693c0.445-3.532-2.595-4.208-9.253-5.687l-1.957-0.438
			c-3.113-0.703-5.147-1.831-5.882-3.264c-0.493-0.961-0.443-2.144,0.15-3.517c0.445-1.032,1.784-1.249,2.829-1.249
			c0.603,0,1.052,0.078,1.052,0.078l0.071,0.011c0.266,0.029,6.558,0.719,10.163,0.719c0.776,0,1.027,0.264,1.109,0.351
			c0.645,0.678,0.535,2.53,0.439,4.164c-0.038,0.641-0.077,1.305-0.077,1.935c0,3.175,2.393,4.608,3.659,4.923l0.811,0.201
			l0.373-0.742c0.082-0.163,8.279-16.429,11.809-22.387c1.841-3.108,19.971-5.196,45.113-5.196c0.866,0,1.349,0.004,1.369,0.004
			c0.002,0,0.484-0.004,1.351-0.004c25.142,0,43.271,2.088,45.112,5.196c3.53,5.958,11.727,22.224,11.809,22.387l0.373,0.742
			l0.811-0.201c1.265-0.314,3.66-1.747,3.66-4.923c0-0.629-0.039-1.293-0.077-1.935c-0.096-1.634-0.205-3.485,0.439-4.164
			c0.083-0.087,0.333-0.351,1.11-0.351c3.605,0,9.897-0.69,10.163-0.719l0.068-0.01c0.005-0.001,0.452-0.078,1.055-0.078
			c1.045,0,2.383,0.217,2.829,1.249C160.586,53.133,160.637,54.316,160.143,55.277z M24.929,63.79h111.971
			c0.361,0,0.697-0.186,0.887-0.491c0.189-0.306,0.206-0.687,0.043-1.007c-1.796-3.544-7.878-15.485-10.767-20.361
			c-0.959-1.618-4.209-3.916-21.29-5.173c-9.643-0.71-19.69-0.787-23.561-0.787c-0.823,0-1.29,0.004-1.29,0.004
			c-0.016,0-0.482-0.004-1.306-0.004c-3.871,0-13.917,0.077-23.559,0.787c-17.082,1.257-20.332,3.555-21.291,5.173
			c-2.889,4.876-8.971,16.817-10.767,20.361c-0.163,0.32-0.146,0.701,0.043,1.007C24.232,63.604,24.567,63.79,24.929,63.79z
			 M36.56,42.98c1.751-2.955,19.054-4.941,43.056-4.941c0.826,0,1.287,0.004,1.309,0.004c0,0,0.46-0.004,1.287-0.004
			c24.002,0,41.305,1.985,43.056,4.941c2.533,4.275,7.582,14.109,9.94,18.743H26.62C28.978,57.089,34.027,47.255,36.56,42.98z
			 M22.789,100.92c-3.542,0-6.425,2.861-6.425,6.378c0,3.517,2.882,6.379,6.425,6.379c3.542,0,6.424-2.862,6.424-6.379
			C29.213,103.781,26.332,100.92,22.789,100.92z M22.789,111.61c-2.394,0-4.342-1.935-4.342-4.312c0-2.377,1.948-4.311,4.342-4.311
			c2.394,0,4.341,1.934,4.341,4.311C27.131,109.675,25.183,111.61,22.789,111.61z M139.91,100.92c-3.542,0-6.424,2.861-6.424,6.378
			c0,3.517,2.881,6.379,6.424,6.379s6.424-2.862,6.424-6.379C146.334,103.781,143.452,100.92,139.91,100.92z M139.91,111.61
			c-2.394,0-4.341-1.935-4.341-4.312c0-2.377,1.947-4.311,4.341-4.311c2.394,0,4.342,1.934,4.342,4.311
			C144.252,109.675,142.304,111.61,139.91,111.61z M122.707,98.068H38.669c-0.29,0-0.567,0.121-0.765,0.332
			c-0.197,0.212-0.296,0.496-0.273,0.783l1.076,13.541c0.04,0.505,0.443,0.907,0.951,0.949c0.264,0.021,26.54,2.185,40.803,2.231
			l0.117-0.001l0.335,0.001l0.003-0.002c14.259-0.044,40.536-2.208,40.799-2.229c0.508-0.042,0.911-0.444,0.951-0.949l1.077-13.541
			c0.023-0.287-0.076-0.571-0.273-0.783C123.274,98.189,122.997,98.068,122.707,98.068z M120.662,111.685
			c-4.702,0.376-27.047,2.111-39.75,2.153l-0.447-0.002c-12.701-0.04-35.049-1.775-39.752-2.151l-0.918-11.548h81.785
			L120.662,111.685z M111.501,83.919c-10.185,1.685-23.555,1.867-28.832,1.867c-1.246,0-1.962-0.011-1.997-0.011
			c-0.004,0-0.721,0.011-1.966,0.011c-5.275,0-18.646-0.182-28.831-1.867c-0.42-0.071-0.837,0.12-1.059,0.479l-5.114,8.285
			c-0.197,0.319-0.205,0.719-0.02,1.045c0.184,0.327,0.531,0.529,0.908,0.529h72.195c0.377,0,0.725-0.202,0.908-0.529
			c0.184-0.326,0.176-0.726-0.02-1.045l-5.114-8.285C112.337,84.039,111.917,83.848,111.501,83.919z M114.926,92.189H46.45
			l3.777-6.119c10.241,1.607,23.27,1.783,28.479,1.783c1.24,0,1.967-0.011,1.967-0.011c0.03,0,0.754,0.011,1.997,0.011
			c5.209,0,18.239-0.176,28.48-1.783L114.926,92.189z M45.211,88.144c0.151-0.231,0.248-0.401,0.295-0.487
			c1.57-2.879-0.205-4.282-0.281-4.34c-0.088-0.068-0.186-0.12-0.291-0.157L29.67,77.868c0,0-0.001,0-0.001,0l-3.63-1.259
			c0,0,0,0,0,0l-2.453-0.851c0,0,0,0-0.001,0l-6.912-2.397c-0.431-0.149-0.845-0.225-1.231-0.225c-0.265,0-0.507,0.032-0.728,0.091
			c-1.547,0.409-2.062,2.109-2.114,3.092c-0.082,0.762-0.755,8.761,6.033,13.872c0.093,0.07,0.195,0.136,0.291,0.205
			c0.173,0.125,0.343,0.25,0.526,0.371c1.418,0.937,3.123,1.753,5.174,2.376c2.716,0.825,5.308,1.243,7.704,1.243h0.002
			c4.618,0,7.818-1.51,9.91-3.106C43.81,90.083,44.756,88.838,45.211,88.144z M35.77,83.044c0.755,0,1.369,0.61,1.369,1.359
			c0,0.749-0.614,1.359-1.369,1.359c-0.754,0-1.368-0.61-1.368-1.359C34.401,83.654,35.015,83.044,35.77,83.044z M32.794,81.141
			l1.113,0.386c-0.953,0.611-1.588,1.669-1.588,2.877c0,1.889,1.548,3.427,3.451,3.427c1.903,0,3.452-1.537,3.452-3.427
			c0-0.388-0.079-0.755-0.2-1.103l1.12,0.388c0.041,0.238,0.067,0.477,0.067,0.715c0,2.43-1.992,4.407-4.439,4.407
			c-2.448,0-4.438-1.977-4.438-4.407C31.331,83.158,31.871,81.973,32.794,81.141z M23.275,77.841l1.713,0.594
			c0.063,0.137,0.115,0.295,0.115,0.493c0,0.688-0.565,1.249-1.258,1.249c-0.694,0-1.258-0.561-1.258-1.249
			C22.586,78.46,22.864,78.051,23.275,77.841z M20.063,76.727l1.014,0.352c-0.365,0.534-0.574,1.173-0.574,1.849
			c0,1.829,1.499,3.317,3.34,3.317c1.752,0,3.193-1.346,3.329-3.051l1.081,0.375c-0.232,2.237-2.118,3.994-4.432,3.994
			c-2.469,0-4.478-1.994-4.478-4.446C19.345,78.264,19.602,77.44,20.063,76.727z M32.329,92.318c-2.191,0-4.578-0.388-7.096-1.153
			C13.359,87.559,14.611,76.984,14.67,76.538c0.004-0.027,0.007-0.061,0.008-0.089c0.001-0.013,0.077-1.245,0.763-1.245
			c0.152,0,0.336,0.036,0.544,0.109l2.064,0.716c-0.514,0.943-0.788,2.002-0.788,3.087c0,3.592,2.943,6.513,6.56,6.513
			c3.221,0,5.907-2.316,6.457-5.359l0.373,0.129c-0.897,1.129-1.403,2.539-1.403,4.005c0,3.57,2.925,6.475,6.521,6.475
			c3.586,0,6.504-2.888,6.521-6.444l1.694,0.587c0.128,0.246,0.163,0.782-0.31,1.651c-0.02,0.036-0.05,0.09-0.091,0.159
			C42.965,87.865,39.86,92.318,32.329,92.318z M141.764,73.991l-3.555,1.233l-0.001,0l-2.452,0.85c-0.001,0-0.001,0-0.002,0
			l-18.894,6.552c-0.105,0.036-0.204,0.089-0.292,0.157c-0.077,0.058-1.851,1.461-0.281,4.34c0.376,0.689,3.937,6.728,13.176,6.728
			c2.397,0,4.989-0.418,7.706-1.243c13.12-3.984,12.125-15.885,12.024-16.824c-0.06-1.124-0.724-3.182-2.841-3.182
			c-0.386,0-0.8,0.075-1.231,0.225l-3.353,1.162C141.766,73.989,141.765,73.99,141.764,73.991z M136.806,77.9l1.712-0.594
			c0.411,0.211,0.689,0.62,0.689,1.087c0,0.689-0.565,1.249-1.258,1.249c-0.693,0-1.258-0.56-1.258-1.249
			C136.691,78.195,136.743,78.037,136.806,77.9z M126.023,82.51c0.754,0,1.369,0.61,1.369,1.359c0,0.75-0.614,1.36-1.369,1.36
			c-0.755,0-1.369-0.61-1.369-1.36C124.654,83.12,125.268,82.51,126.023,82.51z M121.651,83.154l1.12-0.388
			c-0.12,0.348-0.2,0.715-0.2,1.103c0,1.89,1.548,3.427,3.452,3.427c1.903,0,3.451-1.538,3.451-3.427
			c0-1.207-0.636-2.265-1.589-2.876l1.114-0.386c0.923,0.832,1.463,2.017,1.463,3.262c0,2.43-1.991,4.408-4.439,4.408
			c-2.448,0-4.438-1.977-4.438-4.408C121.584,83.631,121.611,83.393,121.651,83.154z M143.743,75.494l2.063-0.715
			c0.209-0.073,0.393-0.109,0.545-0.109c0.687,0,0.763,1.232,0.763,1.238c0.001,0.03,0.005,0.063,0.008,0.093
			c0.06,0.448,1.312,11.024-10.562,14.629c-2.519,0.765-4.907,1.153-7.097,1.153c-8.033,0-11.03-5.067-11.345-5.645
			c-0.364-0.667-0.427-1.139-0.391-1.423c0.012-0.095,0.035-0.169,0.062-0.222l1.713-0.594c0.017,3.557,2.936,6.445,6.521,6.445
			c3.596,0,6.521-2.905,6.521-6.476c0-1.465-0.506-2.875-1.404-4.004l0.374-0.13c0.55,3.043,3.236,5.36,6.457,5.36
			c3.617,0,6.56-2.922,6.56-6.513C144.531,77.497,144.257,76.437,143.743,75.494z M137.971,83.027c-2.314,0-4.2-1.757-4.432-3.994
			l1.081-0.375c0.137,1.706,1.577,3.052,3.329,3.052c1.842,0,3.34-1.488,3.34-3.317c0-0.676-0.209-1.315-0.574-1.849l1.015-0.352
			c0.461,0.713,0.719,1.538,0.719,2.389C142.449,81.032,140.44,83.027,137.971,83.027z"/>
	</g>
</g>
<g>
</g>
<g>
</g>
<g>
</g>
<g>
</g>
<g>
</g>
<g>
</g>
<g>
</g>
<g>
</g>
<g>
</g>
<g>
</g>
<g>
</g>
<g>
</g>
<g>
</g>
<g>
</g>
<g>
</g>
</svg>
